<svg width="271" height="14" viewBox="0 0 271 14" fill="none" xmlns="http://www.w3.org/2000/svg">
<path d="M130.721 13.084C129.945 13.084 129.237 12.904 128.597 12.544C127.957 12.176 127.449 11.668 127.073 11.02C126.705 10.364 126.521 9.628 126.521 8.812C126.521 7.996 126.705 7.264 127.073 6.616C127.449 5.96 127.957 5.452 128.597 5.092C129.237 4.724 129.945 4.54 130.721 4.54C131.505 4.54 132.217 4.724 132.857 5.092C133.497 5.452 134.001 5.956 134.369 6.604C134.737 7.252 134.921 7.988 134.921 8.812C134.921 9.636 134.737 10.372 134.369 11.02C134.001 11.668 133.497 12.176 132.857 12.544C132.217 12.904 131.505 13.084 130.721 13.084ZM130.721 12.136C131.305 12.136 131.829 12 132.293 11.728C132.765 11.456 133.133 11.068 133.397 10.564C133.669 10.06 133.805 9.476 133.805 8.812C133.805 8.14 133.669 7.556 133.397 7.06C133.133 6.556 132.769 6.168 132.305 5.896C131.841 5.624 131.313 5.488 130.721 5.488C130.129 5.488 129.601 5.624 129.137 5.896C128.673 6.168 128.305 6.556 128.033 7.06C127.769 7.556 127.637 8.14 127.637 8.812C127.637 9.476 127.769 10.06 128.033 10.564C128.305 11.068 128.673 11.456 129.137 11.728C129.609 12 130.137 12.136 130.721 12.136ZM142.195 6.424V13H141.103V12.028C140.895 12.364 140.603 12.628 140.227 12.82C139.859 13.004 139.451 13.096 139.003 13.096C138.491 13.096 138.031 12.992 137.623 12.784C137.215 12.568 136.891 12.248 136.651 11.824C136.419 11.4 136.303 10.884 136.303 10.276V6.424H137.383V10.132C137.383 10.78 137.547 11.28 137.875 11.632C138.203 11.976 138.651 12.148 139.219 12.148C139.803 12.148 140.263 11.968 140.599 11.608C140.935 11.248 141.103 10.724 141.103 10.036V6.424H142.195Z" fill="#858585"/>
<line x1="270.024" y1="8.75" x2="149.986" y2="8.75" stroke="#858585" stroke-width="0.5"/>
<line x1="120.038" y1="8.75" x2="0.000106812" y2="8.75" stroke="#858585" stroke-width="0.5"/>
</svg>
