<svg width="40" height="40" viewBox="0 0 40 40" fill="none" xmlns="http://www.w3.org/2000/svg">
<path d="M35.6217 27.8C34.7592 29.7157 34.3435 30.5719 33.2342 32.2625C31.681 34.625 29.4904 37.5751 26.7842 37.5938C24.3748 37.6157 23.7529 36.0219 20.481 36.05C17.2123 36.0657 16.531 37.625 14.1185 37.6C11.4092 37.5751 9.33729 34.9188 7.78416 32.5594C3.44041 25.9438 2.98104 18.1875 5.66541 14.0625C7.56541 11.1375 10.5685 9.4188 13.3904 9.4188C16.2654 9.4188 18.0717 10.9969 20.4467 10.9969C22.7529 10.9969 24.156 9.41567 27.481 9.41567C29.9935 9.41567 32.6498 10.7844 34.5498 13.1469C28.3373 16.5532 29.3467 25.425 35.6217 27.8ZM24.956 6.77505C26.1654 5.22192 27.0842 3.0313 26.7498 0.800049C24.7779 0.934424 22.4717 2.1938 21.1248 3.82505C19.9029 5.31255 18.8904 7.5188 19.2842 9.65317C21.4373 9.72192 23.6654 8.43755 24.956 6.77505Z" fill="white"/>
</svg>
