<svg width="22" height="16" viewBox="0 0 22 16" fill="none" xmlns="http://www.w3.org/2000/svg">
<path d="M10.8496 1.77539C13.0003 1.77555 15.4818 2.97889 17.4834 4.54395C18.4693 5.31479 19.292 6.13745 19.8574 6.87305C20.1402 7.24094 20.3463 7.57012 20.4775 7.8457C20.6142 8.13279 20.6406 8.30179 20.6406 8.36621C20.6406 8.42653 20.6161 8.58337 20.4844 8.84863C20.3573 9.10452 20.1565 9.40998 19.877 9.75098C19.3179 10.433 18.5007 11.1888 17.5166 11.8945C15.5252 13.3224 13.0311 14.4178 10.8496 14.418C8.67211 14.418 6.23712 13.3259 4.30664 11.9023C3.35255 11.1988 2.56496 10.4442 2.02637 9.76367C1.44955 9.03481 1.28711 8.55242 1.28711 8.36621C1.28713 8.29379 1.31558 8.12027 1.44727 7.83301C1.57404 7.55647 1.77231 7.22665 2.04492 6.85938C2.59 6.12504 3.38382 5.3039 4.33984 4.53516C6.28093 2.97435 8.70353 1.77539 10.8496 1.77539Z" fill="#D9D9D9" stroke="#474646" stroke-width="2"/>
<path d="M10.9629 4.82617C12.9376 4.82637 14.5381 6.42761 14.5381 8.40234C14.5379 10.3769 12.9375 11.9773 10.9629 11.9775C8.98815 11.9775 7.38692 10.377 7.38672 8.40234C7.38672 6.42748 8.98803 4.82617 10.9629 4.82617Z" fill="#D9D9D9" stroke="#474646" stroke-width="2"/>
</svg>
