<svg width="17" height="9" viewBox="0 0 17 9" fill="none" xmlns="http://www.w3.org/2000/svg">
<mask id="path-1-inside-1_263457_494" fill="white">
<path d="M16.1657 0.725509C16.1657 2.37069 11.74 6.06495 7.99596 6.06495C4.25192 6.06495 0 2.37069 0 0.725509C0 -0.919673 4.25192 4.44808 7.99596 4.44808C11.74 4.44808 16.1657 -0.919673 16.1657 0.725509Z"/>
</mask>
<path d="M16.1657 0.725509C16.1657 2.37069 11.74 6.06495 7.99596 6.06495C4.25192 6.06495 0 2.37069 0 0.725509C0 -0.919673 4.25192 4.44808 7.99596 4.44808C11.74 4.44808 16.1657 -0.919673 16.1657 0.725509Z" fill="#D9D9D9"/>
<path d="M14.1657 0.725509C14.1657 0.508683 14.2297 0.431569 14.1769 0.537869C14.1334 0.625519 14.0394 0.778048 13.8688 0.986168C13.5279 1.4021 12.995 1.90231 12.3192 2.38696C10.9211 3.38974 9.28568 4.06495 7.99596 4.06495V8.06495C10.4503 8.06495 12.8998 6.89304 14.6505 5.63739C15.5492 4.99283 16.3567 4.261 16.9626 3.52155C17.2655 3.15198 17.5465 2.74598 17.7596 2.3167C17.9635 1.90607 18.1657 1.35363 18.1657 0.725509H14.1657ZM7.99596 4.06495C6.71465 4.06495 5.12846 3.39638 3.78113 2.40263C3.12965 1.92211 2.61798 1.42574 2.29125 1.01282C1.88794 0.503131 2 0.422989 2 0.725509H-2C-2 1.85062 -1.35645 2.8492 -0.84552 3.4949C-0.25802 4.23736 0.527298 4.97302 1.4068 5.62172C3.12144 6.88639 5.53323 8.06495 7.99596 8.06495V4.06495ZM2 0.725509C2 0.783583 2.00037 1.14891 1.7425 1.55965C1.40752 2.0932 0.859561 2.36273 0.362132 2.4057C-0.0168795 2.43844 -0.273866 2.33522 -0.301473 2.3246C-0.358916 2.30248 -0.364368 2.29346 -0.299491 2.33205C0.0407304 2.5344 0.523478 2.92381 1.402 3.57585C2.18747 4.15882 3.17556 4.85783 4.24973 5.41229C5.30775 5.9584 6.60594 6.44808 7.99596 6.44808V2.44808C7.51395 2.44808 6.87665 2.26679 6.08442 1.85786C5.30834 1.45728 4.53145 0.917178 3.78593 0.363856C3.13347 -0.120399 2.31923 -0.764453 1.74522 -1.10585C1.58154 -1.2032 1.37145 -1.31755 1.13561 -1.40834C0.929612 -1.48764 0.52048 -1.62288 0.0178925 -1.57946C-0.603113 -1.52582 -1.24607 -1.20292 -1.64517 -0.567254C-1.96716 -0.0544018 -2 0.461787 -2 0.725509H2ZM7.99596 6.44808C9.38246 6.44808 10.6887 5.96048 11.7567 5.41874C12.8429 4.86782 13.8503 4.17256 14.6553 3.5916C15.5508 2.94529 16.0585 2.55031 16.4117 2.34745C16.4804 2.30803 16.4801 2.31403 16.4286 2.33312C16.4054 2.34174 16.1627 2.4362 15.8025 2.40623C15.3361 2.36744 14.788 2.12198 14.4404 1.58944C14.1677 1.17176 14.1657 0.793744 14.1657 0.725509H18.1657C18.1657 0.451626 18.1292 -0.0772479 17.7899 -0.597041C17.3756 -1.2317 16.7288 -1.53053 16.1341 -1.58C15.6455 -1.62064 15.2449 -1.49416 15.0366 -1.41686C14.8002 -1.32909 14.5878 -1.21777 14.4197 -1.12125C13.8261 -0.780367 12.9933 -0.141873 12.3144 0.348099C11.545 0.903432 10.744 1.44729 9.94727 1.85141C9.13246 2.26471 8.48148 2.44808 7.99596 2.44808V6.44808Z" fill="#474646" mask="url(#path-1-inside-1_263457_494)"/>
<mask id="path-3-inside-2_263457_494" fill="white">
<path d="M11.883 4.15613C12.0155 4.13266 12.151 4.17589 12.2455 4.27173L13.5853 5.63153C13.7326 5.78104 13.7317 6.02143 13.5833 6.16986C13.4462 6.30705 13.228 6.31963 13.076 6.19911L12.229 5.52752C12.1779 5.48703 12.1317 5.44078 12.0912 5.3897L11.634 4.81273C11.4417 4.57013 11.5783 4.21012 11.883 4.15613Z"/>
</mask>
<path d="M11.883 4.15613C12.0155 4.13266 12.151 4.17589 12.2455 4.27173L13.5853 5.63153C13.7326 5.78104 13.7317 6.02143 13.5833 6.16986C13.4462 6.30705 13.228 6.31963 13.076 6.19911L12.229 5.52752C12.1779 5.48703 12.1317 5.44078 12.0912 5.3897L11.634 4.81273C11.4417 4.57013 11.5783 4.21012 11.883 4.15613Z" fill="#474646"/>
<path d="M12.229 5.52752L13.4712 3.95996L12.229 5.52752ZM10.8212 5.67583L12.1611 7.03564L15.0095 4.22743L13.6697 2.86762L10.8212 5.67583ZM14.3182 4.63156L13.4712 3.95996L10.9868 7.09507L11.8338 7.76666L14.3182 4.63156ZM13.6583 4.14717L13.2011 3.5702L10.0669 6.05526L10.5241 6.63223L13.6583 4.14717ZM13.4712 3.95996C13.5405 4.01497 13.6033 4.07778 13.6583 4.14717L10.5241 6.63223C10.66 6.80378 10.8153 6.95909 10.9868 7.09507L13.4712 3.95996ZM11.5343 2.18651C9.7387 2.50461 8.93413 4.62583 10.0669 6.05526L13.2011 3.5702C13.9493 4.51442 13.4179 5.91562 12.2318 6.12575L11.5343 2.18651ZM12.1693 4.75545C12.7503 4.17436 13.6744 4.12108 14.3182 4.63156L11.8338 7.76666C12.7817 8.51817 14.1421 8.43974 14.9974 7.58426L12.1693 4.75545ZM12.1611 7.03564C11.5371 6.40237 11.5408 5.38417 12.1693 4.75545L14.9974 7.58426C15.9227 6.65868 15.9281 5.1597 15.0095 4.22743L12.1611 7.03564ZM13.6697 2.86762C13.1133 2.30294 12.3148 2.04824 11.5343 2.18651L12.2318 6.12575C11.7162 6.21708 11.1887 6.04884 10.8212 5.67583L13.6697 2.86762Z" fill="#474646" mask="url(#path-3-inside-2_263457_494)"/>
<path d="M12.229 5.52752L13.4712 3.95996L12.229 5.52752ZM10.8212 5.67583L12.1611 7.03564L15.0095 4.22743L13.6697 2.86762L10.8212 5.67583ZM14.3182 4.63156L13.4712 3.95996L10.9868 7.09507L11.8338 7.76666L14.3182 4.63156ZM13.6583 4.14717L13.2011 3.5702L10.0669 6.05526L10.5241 6.63223L13.6583 4.14717ZM13.4712 3.95996C13.5405 4.01497 13.6033 4.07778 13.6583 4.14717L10.5241 6.63223C10.66 6.80378 10.8153 6.95909 10.9868 7.09507L13.4712 3.95996ZM11.5343 2.18651C9.7387 2.50461 8.93413 4.62583 10.0669 6.05526L13.2011 3.5702C13.9493 4.51442 13.4179 5.91562 12.2318 6.12575L11.5343 2.18651ZM12.1693 4.75545C12.7503 4.17436 13.6744 4.12108 14.3182 4.63156L11.8338 7.76666C12.7817 8.51817 14.1421 8.43974 14.9974 7.58426L12.1693 4.75545ZM12.1611 7.03564C11.5371 6.40237 11.5408 5.38417 12.1693 4.75545L14.9974 7.58426C15.9227 6.65868 15.9281 5.1597 15.0095 4.22743L12.1611 7.03564ZM13.6697 2.86762C13.1133 2.30294 12.3148 2.04824 11.5343 2.18651L12.2318 6.12575C11.7162 6.21708 11.1887 6.04884 10.8212 5.67583L13.6697 2.86762Z" fill="#474646" mask="url(#path-3-inside-2_263457_494)"/>
<mask id="path-5-inside-3_263457_494" fill="white">
<path d="M7.54827 7.7553C7.44897 7.68588 7.39017 7.57204 7.39105 7.45087L7.40521 5.49981C7.40665 5.30141 7.5679 5.14133 7.7663 5.14133C7.96573 5.14133 8.1274 5.303 8.1274 5.50243V6.52713V7.45354C8.1274 7.75131 7.79231 7.9259 7.54827 7.7553Z"/>
</mask>
<path d="M7.54827 7.7553C7.44897 7.68588 7.39017 7.57204 7.39105 7.45087L7.40521 5.49981C7.40665 5.30141 7.5679 5.14133 7.7663 5.14133C7.96573 5.14133 8.1274 5.303 8.1274 5.50243V6.52713V7.45354C8.1274 7.75131 7.79231 7.9259 7.54827 7.7553Z" fill="#474646"/>
<path d="M7.40521 5.49981L9.40516 5.51432L7.40521 5.49981ZM7.39105 7.45087L9.391 7.46539L7.39105 7.45087ZM9.391 7.46539L9.40516 5.51432L5.40527 5.48529L5.39111 7.43636L9.391 7.46539ZM6.1274 5.50243V6.52713H10.1274V5.50243H6.1274ZM6.1274 6.52713V7.45354H10.1274V6.52713H6.1274ZM6.40236 9.39447C7.97207 10.4918 10.1274 9.36878 10.1274 7.45354H6.1274C6.1274 6.13383 7.61256 5.35998 8.69419 6.11613L6.40236 9.39447ZM7.7663 7.14133C6.86116 7.14133 6.1274 6.40757 6.1274 5.50243H10.1274C10.1274 4.19843 9.0703 3.14133 7.7663 3.14133V7.14133ZM9.40516 5.51432C9.39863 6.4148 8.6668 7.14133 7.7663 7.14133V3.14133C6.46899 3.14133 5.41468 4.18802 5.40527 5.48529L9.40516 5.51432ZM5.39111 7.43636C5.38545 8.2157 5.7636 8.94793 6.40236 9.39447L8.69419 6.11613C9.13433 6.42382 9.3949 6.92837 9.391 7.46539L5.39111 7.43636Z" fill="#474646" mask="url(#path-5-inside-3_263457_494)"/>
<path d="M7.40521 5.49981L9.40516 5.51432L7.40521 5.49981ZM7.39105 7.45087L9.391 7.46539L7.39105 7.45087ZM9.391 7.46539L9.40516 5.51432L5.40527 5.48529L5.39111 7.43636L9.391 7.46539ZM6.1274 5.50243V6.52713H10.1274V5.50243H6.1274ZM6.1274 6.52713V7.45354H10.1274V6.52713H6.1274ZM6.40236 9.39447C7.97207 10.4918 10.1274 9.36878 10.1274 7.45354H6.1274C6.1274 6.13383 7.61256 5.35998 8.69419 6.11613L6.40236 9.39447ZM7.7663 7.14133C6.86116 7.14133 6.1274 6.40757 6.1274 5.50243H10.1274C10.1274 4.19843 9.0703 3.14133 7.7663 3.14133V7.14133ZM9.40516 5.51432C9.39863 6.4148 8.6668 7.14133 7.7663 7.14133V3.14133C6.46899 3.14133 5.41468 4.18802 5.40527 5.48529L9.40516 5.51432ZM5.39111 7.43636C5.38545 8.2157 5.7636 8.94793 6.40236 9.39447L8.69419 6.11613C9.13433 6.42382 9.3949 6.92837 9.391 7.46539L5.39111 7.43636Z" fill="#474646" mask="url(#path-5-inside-3_263457_494)"/>
<mask id="path-7-inside-4_263457_494" fill="white">
<path d="M1.60475 5.72777C1.58129 5.59527 1.6245 5.4597 1.72031 5.36525L3.07975 4.02504C3.22921 3.87769 3.46954 3.87856 3.61793 4.02699C3.75508 4.16418 3.76766 4.38241 3.64717 4.53446L2.97576 5.38173C2.93528 5.43281 2.88905 5.47905 2.83799 5.51954L2.26117 5.97688C2.01864 6.16918 1.65872 6.03259 1.60475 5.72777Z"/>
</mask>
<path d="M1.60475 5.72777C1.58129 5.59527 1.6245 5.4597 1.72031 5.36525L3.07975 4.02504C3.22921 3.87769 3.46954 3.87856 3.61793 4.02699C3.75508 4.16418 3.76766 4.38241 3.64717 4.53446L2.97576 5.38173C2.93528 5.43281 2.88905 5.47905 2.83799 5.51954L2.26117 5.97688C2.01864 6.16918 1.65872 6.03259 1.60475 5.72777Z" fill="#474646"/>
<path d="M2.97576 5.38173L1.40864 4.1392L2.97576 5.38173ZM3.12404 6.78988L4.48347 5.44967L1.67603 2.6004L0.316594 3.94061L3.12404 6.78988ZM2.08005 3.29193L1.40864 4.1392L4.54289 6.62425L5.2143 5.77698L2.08005 3.29193ZM1.5958 3.95199L1.01898 4.40933L3.50336 7.54443L4.08018 7.08709L1.5958 3.95199ZM1.40864 4.1392C1.46363 4.06981 1.52643 4.00699 1.5958 3.95199L4.08018 7.08709C4.25168 6.95111 4.40694 6.79581 4.54289 6.62425L1.40864 4.1392ZM-0.364333 6.07661C-0.0463142 7.87268 2.07433 8.67748 3.50336 7.54443L1.01898 4.40933C1.96295 3.66089 3.36376 4.19251 3.57383 5.37892L-0.364333 6.07661ZM2.20391 5.4414C1.62298 4.8603 1.56971 3.93594 2.08005 3.29193L5.2143 5.77698C5.9656 4.82888 5.88719 3.46806 5.03195 2.61258L2.20391 5.4414ZM4.48347 5.44967C3.85038 6.07381 2.83245 6.07011 2.20391 5.4414L5.03195 2.61258C4.10662 1.687 2.60805 1.68156 1.67603 2.6004L4.48347 5.44967ZM0.316594 3.94061C-0.247935 4.49716 -0.502567 5.29591 -0.364333 6.07661L3.57383 5.37892C3.66514 5.89462 3.49694 6.42225 3.12404 6.78988L0.316594 3.94061Z" fill="#474646" mask="url(#path-7-inside-4_263457_494)"/>
<path d="M2.97576 5.38173L1.40864 4.1392L2.97576 5.38173ZM3.12404 6.78988L4.48347 5.44967L1.67603 2.6004L0.316594 3.94061L3.12404 6.78988ZM2.08005 3.29193L1.40864 4.1392L4.54289 6.62425L5.2143 5.77698L2.08005 3.29193ZM1.5958 3.95199L1.01898 4.40933L3.50336 7.54443L4.08018 7.08709L1.5958 3.95199ZM1.40864 4.1392C1.46363 4.06981 1.52643 4.00699 1.5958 3.95199L4.08018 7.08709C4.25168 6.95111 4.40694 6.79581 4.54289 6.62425L1.40864 4.1392ZM-0.364333 6.07661C-0.0463142 7.87268 2.07433 8.67748 3.50336 7.54443L1.01898 4.40933C1.96295 3.66089 3.36376 4.19251 3.57383 5.37892L-0.364333 6.07661ZM2.20391 5.4414C1.62298 4.8603 1.56971 3.93594 2.08005 3.29193L5.2143 5.77698C5.9656 4.82888 5.88719 3.46806 5.03195 2.61258L2.20391 5.4414ZM4.48347 5.44967C3.85038 6.07381 2.83245 6.07011 2.20391 5.4414L5.03195 2.61258C4.10662 1.687 2.60805 1.68156 1.67603 2.6004L4.48347 5.44967ZM0.316594 3.94061C-0.247935 4.49716 -0.502567 5.29591 -0.364333 6.07661L3.57383 5.37892C3.66514 5.89462 3.49694 6.42225 3.12404 6.78988L0.316594 3.94061Z" fill="#474646" mask="url(#path-7-inside-4_263457_494)"/>
</svg>
