<svg width="24" height="24" viewBox="0 0 24 24" fill="none" xmlns="http://www.w3.org/2000/svg">
<path d="M4.84581 19.4014L4.34177 19.8191C4.26261 19.8847 4.2168 19.9822 4.2168 20.085C4.2168 20.2166 4.29158 20.3367 4.40965 20.3948L5.75013 21.0544L7.4569 21.8943C7.85067 22.088 8.26824 22.2291 8.69884 22.3139L10.8643 22.7401C11.5366 22.8724 12.2288 22.8652 12.8982 22.7188L14.7396 22.3161C15.1341 22.2298 15.5166 22.0961 15.8789 21.9178L17.6335 21.0544L18.6148 20.4106C18.7201 20.3415 18.7835 20.2241 18.7835 20.0983C18.7835 19.9871 18.7339 19.8816 18.6483 19.8107L18.1544 19.4014C14.2948 16.2028 8.70545 16.2028 4.84581 19.4014Z" fill="white" stroke="white"/>
<path d="M11.583 1.47567C17.5314 1.49744 22.315 6.25742 22.293 12.0823C22.271 17.9073 17.4515 22.6321 11.5032 22.6103C5.55479 22.5885 0.771158 17.8286 0.793169 12.0036C0.815223 6.17874 5.63468 1.45391 11.583 1.47567Z" stroke="white" stroke-width="1.5"/>
<path d="M11.5694 8.33495C13.3757 8.34156 14.8139 9.78476 14.8073 11.5333C14.8007 13.2819 13.3516 14.7146 11.5453 14.7079C9.73906 14.7013 8.30079 13.2581 8.30739 11.5096C8.31399 9.76097 9.76313 8.32834 11.5694 8.33495Z" fill="white" stroke="white" stroke-width="1.5"/>
</svg>
