<svg width="50" height="50" viewBox="0 0 50 50" fill="none" xmlns="http://www.w3.org/2000/svg">
<g clip-path="url(#clip0_263439_384)">
<g filter="url(#filter0_d_263439_384)">
<circle cx="25" cy="25" r="20" fill="#858585"/>
</g>
<g filter="url(#filter1_i_263439_384)">
<path d="M39.4785 19.1889C42.1687 23.6974 34.0205 33.1653 24.909 33.1653C15.7975 33.1653 9.42002 23.4219 11.3435 19.1889C21.679 3.23365 15.371 38 24.909 38C34.447 38 30.81 4.66137 39.4785 19.1889Z" fill="white"/>
<path d="M39.4785 19.1889C42.1687 23.6974 34.0205 33.1653 24.909 33.1653C15.7975 33.1653 9.42002 23.4219 11.3435 19.1889C21.679 3.23365 15.371 38 24.909 38C34.447 38 30.81 4.66137 39.4785 19.1889Z" fill="white"/>
</g>
</g>
<defs>
<filter id="filter0_d_263439_384" x="1" y="5" width="48" height="48" filterUnits="userSpaceOnUse" color-interpolation-filters="sRGB">
<feFlood flood-opacity="0" result="BackgroundImageFix"/>
<feColorMatrix in="SourceAlpha" type="matrix" values="0 0 0 0 0 0 0 0 0 0 0 0 0 0 0 0 0 0 127 0" result="hardAlpha"/>
<feOffset dy="4"/>
<feGaussianBlur stdDeviation="2"/>
<feComposite in2="hardAlpha" operator="out"/>
<feColorMatrix type="matrix" values="0 0 0 0 0 0 0 0 0 0 0 0 0 0 0 0 0 0 0.25 0"/>
<feBlend mode="normal" in2="BackgroundImageFix" result="effect1_dropShadow_263439_384"/>
<feBlend mode="normal" in="SourceGraphic" in2="effect1_dropShadow_263439_384" result="shape"/>
</filter>
<filter id="filter1_i_263439_384" x="11" y="15" width="39" height="33" filterUnits="userSpaceOnUse" color-interpolation-filters="sRGB">
<feFlood flood-opacity="0" result="BackgroundImageFix"/>
<feBlend mode="normal" in="SourceGraphic" in2="BackgroundImageFix" result="shape"/>
<feColorMatrix in="SourceAlpha" type="matrix" values="0 0 0 0 0 0 0 0 0 0 0 0 0 0 0 0 0 0 127 0" result="hardAlpha"/>
<feOffset dx="10" dy="10"/>
<feGaussianBlur stdDeviation="5"/>
<feComposite in2="hardAlpha" operator="arithmetic" k2="-1" k3="1"/>
<feColorMatrix type="matrix" values="0 0 0 0 0.523399 0 0 0 0 0.254591 0 0 0 0 0.743333 0 0 0 0.25 0"/>
<feBlend mode="normal" in2="shape" result="effect1_innerShadow_263439_384"/>
</filter>
<clipPath id="clip0_263439_384">
<rect width="50" height="50" fill="white"/>
</clipPath>
</defs>
</svg>
