<svg width="23" height="24" viewBox="0 0 23 24" fill="none" xmlns="http://www.w3.org/2000/svg">
<path d="M3.5006 6.63806C3.59653 6.03049 4.12021 5.58301 4.7353 5.58301H18.2647C18.8798 5.58301 19.4035 6.03049 19.4994 6.63805L21.8941 21.8047C22.0139 22.5634 21.4275 23.2497 20.6594 23.2497H2.34057C1.57246 23.2497 0.986068 22.5634 1.10586 21.8047L3.5006 6.63806Z" stroke="white" stroke-width="1.5"/>
<path d="M7.66602 8.66667V5.73966C7.66602 4.0523 7.89461 2.13742 9.42306 1.42257C9.95588 1.17337 10.6366 1 11.4993 1C12.3621 1 13.0428 1.17337 13.5756 1.42257C15.1041 2.13742 15.3327 4.0523 15.3327 5.73966V8.66667" stroke="white" stroke-width="1.5"/>
</svg>
